#!OML:ASF H:\MichaelJackson\Top Level 1\Subject 1\Session 1\male.ASF
:FULLY-SPECIFIED
:DEGREES
1000
root 1.61937 16.7089 43.5542 0.213274 23.2342 -0.107708
lowerback 0.69255 -3.19746 -2.18517
upperback -0.997475 -4.30835 -1.49257
thorax -1.36417 -2.13636 -0.23023
lowerneck -7.32901 -7.23736 -2.16657
upperneck 3.00808 -9.62188 3.32068
head 2.51017 -4.71499 0.990107
rclavicle -5.14355e-014 -1.19271e-014
rhumerus -56.0307 -4.59493 -64.4214
rradius 111.311
rwrist -11.6611
rhand -33.0294 -45.8472
rfingers 7.12502
rthumb -6.24264 284.265
lclavicle -5.14355e-014 -1.19271e-014
lhumerus -49.6931 -32.1117 89.0397
lradius 82.9209
lwrist 19.5553
lhand 19.3634 17.1132
lfingers 7.12502
lthumb 43.9416 41.0178
rfemur -22.0951 -6.57976 -6.07322
rtibia 65.9155
rfoot 17.2107 -20.2848
rtoes 41.1193
lfemur -21.6823 23.6073 -15.0605
ltibia 44.3655
lfoot -13.3479 5.51006
ltoes 19.4974
1001
root 1.56837 16.6827 43.5826 0.460291 22.4036 0.343205
lowerback 0.427635 -2.8022 -2.15703
upperback -1.0893 -3.77758 -1.83032
thorax -1.34035 -1.87302 -0.61029
lowerneck -7.26207 -7.31275 -2.28331
upperneck 2.96745 -9.71485 3.37972
head 2.4975 -4.76197 1.02658
rclavicle -9.6659e-015 2.54444e-014
rhumerus -55.094 -2.45527 -64.9561
rradius 112.671
rwrist -10.9341
rhand -33.4588 -44.7751
rfingers 7.12502
rthumb -6.65709 285.35
lclavicle -9.6659e-015 2.54444e-014
lhumerus -50.7193 -31.1992 89.715
lradius 82.7591
lwrist 19.661
lhand 20.7649 18.0941
lfingers 7.12502
lthumb 45.247 41.4957
rfemur -20.5466 -5.69437 -6.4851
rtibia 61.8869
rfoot 17.967 -18.2651
rtoes 37.3627
lfemur -21.3797 22.5605 -14.1715
ltibia 44.62
lfoot -12.6149 3.24111
ltoes 16.652
1002
root 1.51161 16.6578 43.6084 0.648482 21.5994 0.722445
lowerback 0.230346 -2.43206 -2.14028
upperback -1.16808 -3.28182 -2.13394
thorax -1.33153 -1.62688 -0.944008
lowerneck -7.20866 -7.36957 -2.3809
upperneck 2.93487 -9.78476 3.43526
head 2.48817 -4.79714 1.05932
rclavicle -4.19933e-014 -1.66979e-014
rhumerus -54.0697 -0.228623 -65.4237
rradius 113.939
rwrist -10.1996
rhand -33.6999 -43.3739
rfingers 7.12502
rthumb -6.8899 286.758
lclavicle -4.19933e-014 -1.66979e-014
lhumerus -51.5869 -30.2863 90.3632
lradius 82.3994
lwrist 19.5379
lhand 22.0743 18.9172
lfingers 7.12502
lthumb 46.4623 41.8167
rfemur -19.1828 -5.22313 -6.79448
rtibia 58.1654
rfoot 18.5156 -16.4531
rtoes 33.4633
lfemur -20.9285 21.27 -13.1182
ltibia 44.6018
lfoot -11.9594 0.667143
ltoes 13.7465
1003
root 1.44948 16.6345 43.633 0.790413 20.813 1.02044
lowerback 0.0636931 -2.08837 -2.12598
upperback -1.24057 -2.82175 -2.40142
thorax -1.32606 -1.39841 -1.23673
lowerneck -7.18097 -7.41345 -2.44837
upperneck 2.94877 -9.84023 3.4717
head 2.49584 -4.82468 1.07993
rclavicle 3.13086e-015 -1.59028e-015
rhumerus -53.0045 2.06994 -65.8473
rradius 115.13
rwrist -9.53134
rhand -33.8391 -41.7519
rfingers 7.12502
rthumb -7.02426 288.385
lclavicle 3.13086e-015 -1.59028e-015
lhumerus -52.3231 -29.4176 91.0066
lradius 81.8272
lwrist 19.2515
lhand 23.2285 19.5413
lfingers 7.12502
lthumb 47.53 41.9705
rfemur -18.0145 -5.09494 -6.97782
rtibia 54.8309
rfoot 18.8444 -15.0486
rtoes 29.5219
lfemur -20.3023 19.7236 -11.9083
ltibia 44.239
lfoot -11.4425 -2.1938
ltoes 11.0883
1004
root 1.38104 16.6127 43.657 0.902969 20.0282 1.232
lowerback -0.094075 -1.7678 -2.11725
upperback -1.31529 -2.39242 -2.62996
thorax -1.32168 -1.18506 -1.48485
lowerneck -7.17128 -7.44109 -2.49791
upperneck 3.01475 -9.87691 3.50473
head 2.52252 -4.84217 1.09582
rclavicle 4.32357e-015 0
rhumerus -51.9262 4.4396 -66.2316
rradius 116.248
rwrist -9.01005
rhand -33.8558 -39.9603
rfingers 7.12502
rthumb -7.04039 290.177
lclavicle 4.32357e-015 0
lhumerus -52.9281 -28.6562 91.6634
lradius 81.0117
lwrist 18.8913
lhand 24.1729 19.9784
lfingers 7.12502
lthumb 48.4007 42.0021
rfemur -17.0627 -5.1876 -7.01889
rtibia 51.952
rfoot 18.97 -14.1077
rtoes 25.1854
lfemur -19.4929 17.938 -10.5577
ltibia 43.4787
lfoot -11.0811 -5.29969
ltoes 8.73507
1005
root 1.30617 16.5924 43.6816 1.00456 19.2262 1.37023
lowerback -0.259984 -1.46167 -2.11924
upperback -1.40327 -1.98215 -2.83145
thorax -1.32169 -0.980937 -1.69818
lowerneck -7.19355 -7.45968 -2.53147
upperneck 3.16724 -9.90571 3.54468
head 2.58354 -4.85428 1.10883
rclavicle -7.38982e-014 1.59028e-015
rhumerus -50.8898 6.87562 -66.5917
rradius 117.32
rwrist -8.73122
rhand -33.7174 -38.0544
rfingers 7.12502
rthumb -6.90673 292.078
lclavicle -7.38982e-014 1.59028e-015
lhumerus -53.4197 -28.0571 92.3452
lradius 79.9461
lwrist 18.5355
lhand 24.889 20.261
lfingers 7.12502
lthumb 49.0593 41.964
rfemur -16.3229 -5.37466 -6.92935
rtibia 49.5681
rfoot 18.8873 -13.5417
rtoes 19.8242
lfemur -18.4985 15.9456 -9.10046
ltibia 42.2959
lfoot -10.8751 -8.61084
ltoes 6.65099
1006
root 1.22466 16.5727 43.7073 1.12412 18.3984 1.46004
lowerback -0.467056 -1.1716 -2.14693
upperback -1.50481 -1.59185 -3.01995
thorax -1.30891 -0.786469 -1.88342
lowerneck -7.26876 -7.46642 -2.53017
upperneck 3.41586 -9.92412 3.58111
head 2.68436 -4.8594 1.11168
rclavicle -2.24627e-014 -8.74653e-015
rhumerus -49.9258 9.3819 -66.9482
rradius 118.377
rwrist -8.79494
rhand -33.3787 -36.0674
rfingers 7.12502
rthumb -6.57983 294.055
lclavicle -2.24627e-014 -8.74653e-015
lhumerus -53.7889 -27.6436 93.0355
lradius 78.6276
lwrist 18.2294
lhand 25.4083 20.4261
lfingers 7.12502
lthumb 49.5357 41.8892
rfemur -15.7905 -5.51872 -6.74638
rtibia 47.6761
rfoot 18.5652 -13.2476
rtoes 12.8005
lfemur -17.3527 13.7934 -7.59339
ltibia 40.6985
lfoot -10.8229 -12.0726
ltoes 4.8809
1007
root 1.13681 16.5525 43.7343 1.28913 17.5477 1.53627
lowerback -0.730274 -0.901588 -2.20983
upperback -1.6226 -1.22621 -3.21508
thorax -1.27905 -0.603967 -2.05508
lowerneck -7.40568 -7.45348 -2.49537
upperneck 3.75301 -9.92219 3.62525
head 2.825 -4.852 1.10858
rclavicle 3.04638e-014 1.59028e-015
rhumerus -49.0558 11.9464 -67.2937
rradius 119.448
rwrist -9.23248
rhand -32.7352 -34.0347
rfingers 7.12502
rthumb -5.95857 296.069
lclavicle 3.04638e-014 1.59028e-015
lhumerus -54.0406 -27.4199 93.7159
lradius 77.0784
lwrist 17.9868
lhand 25.7981 20.5316
lfingers 7.12502
lthumb 49.8929 41.8104
rfemur -15.4454 -5.52028 -6.52646
rtibia 46.2327
rfoot 18.026 -13.0556
rtoes 3.74989
lfemur -16.0978 11.5116 -6.09736
ltibia 38.7307
lfoot -10.9255 -15.6051
ltoes 3.28361
1008
root 1.04329 16.5305 43.7621 1.51509 16.6947 1.63628
lowerback -1.05061 -0.663494 -2.32198
upperback -1.75541 -0.900525 -3.43323
thorax -1.23145 -0.440969 -2.22162
lowerneck -7.58265 -7.41627 -2.43098
upperneck 4.13887 -9.89376 3.68747
head 2.98917 -4.82902 1.10554
rclavicle 6.50523e-014 8.74653e-015
rhumerus -48.2835 14.5749 -67.61
rradius 120.56
rwrist -10.0494
rhand -31.6783 -31.9921
rfingers 7.12502
rthumb -4.93809 298.085
lclavicle 6.50523e-014 8.74653e-015
lhumerus -54.1926 -27.3516 94.3676
lradius 75.342
lwrist 17.7787
lhand 26.1579 20.6065
lfingers 7.12502
lthumb 50.222 41.7119
rfemur -15.2493 -5.33047 -6.33524
rtibia 45.1586
rfoot 17.2985 -12.807
rtoes -6.93143
lfemur -14.7944 9.13364 -4.67822
ltibia 36.4733
lfoot -11.1877 -19.108
ltoes 1.79819
1009
root 0.94527 16.5051 43.7902 1.80492 15.8746 1.7906
lowerback -1.41526 -0.472217 -2.48741
upperback -1.89595 -0.634211 -3.68272
thorax -1.16708 -0.307168 -2.38918
lowerneck -7.79315 -7.34838 -2.33868
upperneck 4.52776 -9.8282 3.75427
head 3.15924 -4.78594 1.10046
rclavicle 4.35338e-014 1.11319e-014
rhumerus -47.5789 17.2643 -67.8289
rradius 121.716
rwrist -11.1765
rhand -30.1017 -29.9745
rfingers 7.12502
rthumb -3.41569 300.073
lclavicle 4.35338e-014 1.11319e-014
lhumerus -54.2636 -27.3912 94.9793
lradius 73.4702
lwrist 17.5784
lhand 26.5841 20.6688
lfingers 7.12502
lthumb 50.6114 41.5645
rfemur -15.1557 -4.96455 -6.23486
rtibia 44.3625
rfoot 16.4078 -12.4166
rtoes -17.7437
lfemur -13.5085 6.70289 -3.3912
ltibia 34.0369
lfoot -11.6207 -22.4578
ltoes 0.349204
